<svg id="Layer_1" data-name="Layer 1" xmlns="http://www.w3.org/2000/svg" viewBox="0 0 32 32"><title>ON2Icon-32x32</title><path d="M.92,10.72A5.27,5.27,0,0,1,2,7.25,4,4,0,0,1,5.24,6,4,4,0,0,1,8.51,7.25a5.22,5.22,0,0,1,1.08,3.47V20.5A5.2,5.2,0,0,1,8.51,24a4,4,0,0,1-3.27,1.3A4,4,0,0,1,2,24,5.25,5.25,0,0,1,.92,20.5ZM3,20.6a3.24,3.24,0,0,0,.55,2,2,2,0,0,0,1.69.71,2,2,0,0,0,1.7-.71,3.3,3.3,0,0,0,.54-2v-10a3.29,3.29,0,0,0-.54-2,2,2,0,0,0-1.7-.72,2,2,0,0,0-1.69.72,3.22,3.22,0,0,0-.55,2Z"/><path d="M13.45,25.06H11.56V6.16h2.67l4.38,13.66V6.16h1.86v18.9H18.28L13.45,9.78Z"/><path d="M26.87,6a3.88,3.88,0,0,1,3.24,1.29,5.51,5.51,0,0,1,1,3.49,6.66,6.66,0,0,1-.48,2.58,10.52,10.52,0,0,1-1.18,2.13,18.42,18.42,0,0,1-1.54,1.85c-.55.58-1.07,1.15-1.54,1.73a9.66,9.66,0,0,0-1.2,1.79,4.21,4.21,0,0,0-.49,2v.3h6.21v1.92H22.63V23.44a7.11,7.11,0,0,1,.47-2.67,9.51,9.51,0,0,1,1.19-2.12,17.92,17.92,0,0,1,1.54-1.81c.55-.57,1.06-1.15,1.54-1.75a9.24,9.24,0,0,0,1.19-1.91A5.67,5.67,0,0,0,29,10.83a4,4,0,0,0-.51-2.22,1.92,1.92,0,0,0-1.7-.75,1.91,1.91,0,0,0-1.69.75,3.51,3.51,0,0,0-.53,2v1.67h-2V10.77a5.47,5.47,0,0,1,1-3.49A3.8,3.8,0,0,1,26.87,6Z"/></svg>